<mxfile host="app.diagrams.net" modified="2023-05-12T18:44:39.066Z" agent="Mozilla/5.0 (Macintosh; Intel Mac OS X 10_15_7) AppleWebKit/605.1.15 (KHTML, like Gecko) Version/15.6.1 Safari/605.1.15" etag="dQ9Aqg5_q_C9eTXpskD9" version="21.2.9" type="device">
  <diagram name="Página-1" id="EP1ih3ZwZTv_-YGRXuOE">
    <mxGraphModel dx="1963" dy="690" grid="1" gridSize="10" guides="1" tooltips="1" connect="1" arrows="1" fold="1" page="1" pageScale="1" pageWidth="827" pageHeight="1169" math="0" shadow="0">
      <root>
        <mxCell id="0" />
        <mxCell id="1" parent="0" />
        <mxCell id="0jbL76hVmIkoernHE8K5-29" value="" style="rounded=1;whiteSpace=wrap;html=1;fillColor=none;dashed=1;" vertex="1" parent="1">
          <mxGeometry x="-1" y="523" width="200" height="220" as="geometry" />
        </mxCell>
        <mxCell id="0jbL76hVmIkoernHE8K5-23" value="" style="rounded=1;whiteSpace=wrap;html=1;fillColor=none;dashed=1;" vertex="1" parent="1">
          <mxGeometry x="-236" y="523" width="200" height="150" as="geometry" />
        </mxCell>
        <mxCell id="0jbL76hVmIkoernHE8K5-9" style="edgeStyle=orthogonalEdgeStyle;rounded=0;orthogonalLoop=1;jettySize=auto;html=1;exitX=0.5;exitY=1;exitDx=0;exitDy=0;entryX=0.5;entryY=0;entryDx=0;entryDy=0;endArrow=none;endFill=0;strokeWidth=2;" edge="1" parent="1" source="0jbL76hVmIkoernHE8K5-51" target="0jbL76hVmIkoernHE8K5-8">
          <mxGeometry relative="1" as="geometry" />
        </mxCell>
        <mxCell id="0jbL76hVmIkoernHE8K5-53" style="edgeStyle=orthogonalEdgeStyle;rounded=0;orthogonalLoop=1;jettySize=auto;html=1;exitX=0.5;exitY=1;exitDx=0;exitDy=0;entryX=0.5;entryY=0;entryDx=0;entryDy=0;strokeWidth=2;endArrow=none;endFill=0;" edge="1" parent="1" source="0jbL76hVmIkoernHE8K5-3" target="0jbL76hVmIkoernHE8K5-51">
          <mxGeometry relative="1" as="geometry" />
        </mxCell>
        <mxCell id="0jbL76hVmIkoernHE8K5-3" value="&lt;b&gt;OVNI&lt;/b&gt;" style="rounded=1;whiteSpace=wrap;html=1;strokeWidth=2;" vertex="1" parent="1">
          <mxGeometry x="280" y="168" width="120" height="38" as="geometry" />
        </mxCell>
        <mxCell id="0jbL76hVmIkoernHE8K5-11" style="edgeStyle=orthogonalEdgeStyle;rounded=0;orthogonalLoop=1;jettySize=auto;html=1;exitX=0.5;exitY=1;exitDx=0;exitDy=0;entryX=0.5;entryY=0;entryDx=0;entryDy=0;strokeColor=default;endArrow=none;endFill=0;strokeWidth=2;" edge="1" parent="1" source="0jbL76hVmIkoernHE8K5-8" target="0jbL76hVmIkoernHE8K5-10">
          <mxGeometry relative="1" as="geometry" />
        </mxCell>
        <mxCell id="0jbL76hVmIkoernHE8K5-8" value="R&lt;sub&gt;y&lt;/sub&gt;(δ)" style="ellipse;whiteSpace=wrap;html=1;" vertex="1" parent="1">
          <mxGeometry x="280" y="310" width="120" height="40" as="geometry" />
        </mxCell>
        <mxCell id="0jbL76hVmIkoernHE8K5-26" style="rounded=0;orthogonalLoop=1;jettySize=auto;html=1;exitX=0.5;exitY=1;exitDx=0;exitDy=0;entryX=0.5;entryY=0;entryDx=0;entryDy=0;endArrow=none;endFill=0;strokeWidth=2;" edge="1" parent="1" source="0jbL76hVmIkoernHE8K5-10" target="0jbL76hVmIkoernHE8K5-21">
          <mxGeometry relative="1" as="geometry" />
        </mxCell>
        <mxCell id="0jbL76hVmIkoernHE8K5-32" style="rounded=0;orthogonalLoop=1;jettySize=auto;html=1;exitX=0.5;exitY=1;exitDx=0;exitDy=0;entryX=0.5;entryY=0;entryDx=0;entryDy=0;endArrow=none;endFill=0;strokeWidth=2;" edge="1" parent="1" source="0jbL76hVmIkoernHE8K5-10" target="0jbL76hVmIkoernHE8K5-20">
          <mxGeometry relative="1" as="geometry" />
        </mxCell>
        <mxCell id="0jbL76hVmIkoernHE8K5-48" style="rounded=0;orthogonalLoop=1;jettySize=auto;html=1;exitX=0.5;exitY=1;exitDx=0;exitDy=0;entryX=0.5;entryY=0;entryDx=0;entryDy=0;endArrow=none;endFill=0;strokeWidth=2;" edge="1" parent="1" source="0jbL76hVmIkoernHE8K5-10" target="0jbL76hVmIkoernHE8K5-39">
          <mxGeometry relative="1" as="geometry" />
        </mxCell>
        <mxCell id="0jbL76hVmIkoernHE8K5-50" style="rounded=0;orthogonalLoop=1;jettySize=auto;html=1;exitX=0.5;exitY=1;exitDx=0;exitDy=0;entryX=0.5;entryY=0;entryDx=0;entryDy=0;strokeWidth=2;endArrow=none;endFill=0;" edge="1" parent="1" source="0jbL76hVmIkoernHE8K5-10" target="0jbL76hVmIkoernHE8K5-46">
          <mxGeometry relative="1" as="geometry" />
        </mxCell>
        <mxCell id="0jbL76hVmIkoernHE8K5-80" style="rounded=0;orthogonalLoop=1;jettySize=auto;html=1;exitX=0.5;exitY=1;exitDx=0;exitDy=0;entryX=0.5;entryY=0;entryDx=0;entryDy=0;strokeWidth=2;endArrow=none;endFill=0;" edge="1" parent="1" source="0jbL76hVmIkoernHE8K5-10" target="0jbL76hVmIkoernHE8K5-59">
          <mxGeometry relative="1" as="geometry" />
        </mxCell>
        <mxCell id="0jbL76hVmIkoernHE8K5-81" style="rounded=0;orthogonalLoop=1;jettySize=auto;html=1;exitX=0.5;exitY=1;exitDx=0;exitDy=0;entryX=0.5;entryY=0;entryDx=0;entryDy=0;strokeWidth=2;endArrow=none;endFill=0;" edge="1" parent="1" source="0jbL76hVmIkoernHE8K5-10" target="0jbL76hVmIkoernHE8K5-73">
          <mxGeometry relative="1" as="geometry" />
        </mxCell>
        <mxCell id="0jbL76hVmIkoernHE8K5-10" value="" style="ellipse;whiteSpace=wrap;html=1;aspect=fixed;fillColor=#000000;" vertex="1" parent="1">
          <mxGeometry x="325" y="380" width="30" height="30" as="geometry" />
        </mxCell>
        <mxCell id="0jbL76hVmIkoernHE8K5-14" value="M&lt;sub&gt;ovni&lt;/sub&gt;&amp;nbsp;=&amp;nbsp;T(t&lt;sub style=&quot;border-color: var(--border-color);&quot;&gt;x&lt;/sub&gt;, h&lt;sub style=&quot;border-color: var(--border-color);&quot;&gt;ovni&lt;/sub&gt;, t&lt;sub style=&quot;border-color: var(--border-color);&quot;&gt;z&lt;/sub&gt;). R&lt;sub&gt;y&lt;/sub&gt;(δ)" style="text;html=1;strokeColor=none;fillColor=none;align=center;verticalAlign=middle;whiteSpace=wrap;rounded=0;" vertex="1" parent="1">
          <mxGeometry x="365" y="380" width="155" height="30" as="geometry" />
        </mxCell>
        <mxCell id="0jbL76hVmIkoernHE8K5-15" value="&lt;b&gt;Esfera&lt;/b&gt;" style="rounded=1;whiteSpace=wrap;html=1;strokeWidth=2;" vertex="1" parent="1">
          <mxGeometry x="39" y="693" width="120" height="38" as="geometry" />
        </mxCell>
        <mxCell id="0jbL76hVmIkoernHE8K5-27" style="edgeStyle=orthogonalEdgeStyle;rounded=0;orthogonalLoop=1;jettySize=auto;html=1;exitX=0.5;exitY=1;exitDx=0;exitDy=0;entryX=0.5;entryY=0;entryDx=0;entryDy=0;strokeWidth=2;endArrow=none;endFill=0;" edge="1" parent="1" source="0jbL76hVmIkoernHE8K5-16" target="0jbL76hVmIkoernHE8K5-15">
          <mxGeometry relative="1" as="geometry" />
        </mxCell>
        <mxCell id="0jbL76hVmIkoernHE8K5-16" value="S(r&lt;sub&gt;cockpit&lt;/sub&gt;, r&lt;sub style=&quot;border-color: var(--border-color);&quot;&gt;cockpit&lt;/sub&gt;&lt;span style=&quot;border-color: var(--border-color);&quot;&gt;, r&lt;/span&gt;&lt;sub style=&quot;border-color: var(--border-color);&quot;&gt;cockpit&lt;/sub&gt;)" style="ellipse;whiteSpace=wrap;html=1;" vertex="1" parent="1">
          <mxGeometry x="9" y="623" width="180" height="40" as="geometry" />
        </mxCell>
        <mxCell id="0jbL76hVmIkoernHE8K5-17" value="&lt;b&gt;Esfera&lt;/b&gt;" style="rounded=1;whiteSpace=wrap;html=1;strokeWidth=2;" vertex="1" parent="1">
          <mxGeometry x="-196" y="622" width="120" height="38" as="geometry" />
        </mxCell>
        <mxCell id="0jbL76hVmIkoernHE8K5-28" style="edgeStyle=orthogonalEdgeStyle;rounded=0;orthogonalLoop=1;jettySize=auto;html=1;exitX=0.5;exitY=1;exitDx=0;exitDy=0;entryX=0.5;entryY=0;entryDx=0;entryDy=0;strokeWidth=2;endArrow=none;endFill=0;" edge="1" parent="1" source="0jbL76hVmIkoernHE8K5-20" target="0jbL76hVmIkoernHE8K5-16">
          <mxGeometry relative="1" as="geometry" />
        </mxCell>
        <mxCell id="0jbL76hVmIkoernHE8K5-20" value="T(0, h&lt;sub&gt;corpo&lt;/sub&gt;/2, 0)" style="ellipse;whiteSpace=wrap;html=1;" vertex="1" parent="1">
          <mxGeometry x="39" y="553" width="120" height="40" as="geometry" />
        </mxCell>
        <mxCell id="0jbL76hVmIkoernHE8K5-25" style="edgeStyle=orthogonalEdgeStyle;rounded=0;orthogonalLoop=1;jettySize=auto;html=1;exitX=0.5;exitY=1;exitDx=0;exitDy=0;entryX=0.5;entryY=0;entryDx=0;entryDy=0;endArrow=none;endFill=0;strokeWidth=2;" edge="1" parent="1" source="0jbL76hVmIkoernHE8K5-21" target="0jbL76hVmIkoernHE8K5-17">
          <mxGeometry relative="1" as="geometry" />
        </mxCell>
        <mxCell id="0jbL76hVmIkoernHE8K5-21" value="S(r&lt;sub&gt;corpo&lt;/sub&gt;, h&lt;sub style=&quot;border-color: var(--border-color);&quot;&gt;corpo&lt;/sub&gt;&lt;span style=&quot;border-color: var(--border-color);&quot;&gt;, r&lt;/span&gt;&lt;sub style=&quot;border-color: var(--border-color);&quot;&gt;corpo&lt;/sub&gt;)" style="ellipse;whiteSpace=wrap;html=1;" vertex="1" parent="1">
          <mxGeometry x="-226" y="552" width="180" height="40" as="geometry" />
        </mxCell>
        <mxCell id="0jbL76hVmIkoernHE8K5-24" value="Corpo" style="text;html=1;align=center;verticalAlign=middle;resizable=0;points=[];autosize=1;strokeColor=none;fillColor=none;" vertex="1" parent="1">
          <mxGeometry x="-236" y="520" width="60" height="30" as="geometry" />
        </mxCell>
        <mxCell id="0jbL76hVmIkoernHE8K5-30" value="Cockpit" style="text;html=1;align=center;verticalAlign=middle;resizable=0;points=[];autosize=1;strokeColor=none;fillColor=none;" vertex="1" parent="1">
          <mxGeometry x="9" y="523" width="60" height="30" as="geometry" />
        </mxCell>
        <mxCell id="0jbL76hVmIkoernHE8K5-34" value="" style="rounded=1;whiteSpace=wrap;html=1;fillColor=none;dashed=1;" vertex="1" parent="1">
          <mxGeometry x="239" y="523" width="200" height="220" as="geometry" />
        </mxCell>
        <mxCell id="0jbL76hVmIkoernHE8K5-35" value="&lt;b&gt;Cilindro&lt;/b&gt;" style="rounded=1;whiteSpace=wrap;html=1;strokeWidth=2;" vertex="1" parent="1">
          <mxGeometry x="279" y="690" width="120" height="38" as="geometry" />
        </mxCell>
        <mxCell id="0jbL76hVmIkoernHE8K5-36" style="edgeStyle=orthogonalEdgeStyle;rounded=0;orthogonalLoop=1;jettySize=auto;html=1;exitX=0.5;exitY=1;exitDx=0;exitDy=0;entryX=0.5;entryY=0;entryDx=0;entryDy=0;strokeWidth=2;endArrow=none;endFill=0;" edge="1" parent="1" source="0jbL76hVmIkoernHE8K5-37" target="0jbL76hVmIkoernHE8K5-35">
          <mxGeometry relative="1" as="geometry" />
        </mxCell>
        <mxCell id="0jbL76hVmIkoernHE8K5-37" value="S(r&lt;sub&gt;spotlight&lt;/sub&gt;, h&lt;sub style=&quot;border-color: var(--border-color);&quot;&gt;spotlight&lt;/sub&gt;&lt;span style=&quot;border-color: var(--border-color);&quot;&gt;, &lt;/span&gt;&lt;span style=&quot;border-color: var(--border-color);&quot;&gt;r&lt;/span&gt;&lt;sub style=&quot;border-color: var(--border-color);&quot;&gt;spotlight&lt;/sub&gt;)" style="ellipse;whiteSpace=wrap;html=1;" vertex="1" parent="1">
          <mxGeometry x="249" y="622" width="180" height="40" as="geometry" />
        </mxCell>
        <mxCell id="0jbL76hVmIkoernHE8K5-38" style="edgeStyle=orthogonalEdgeStyle;rounded=0;orthogonalLoop=1;jettySize=auto;html=1;exitX=0.5;exitY=1;exitDx=0;exitDy=0;entryX=0.5;entryY=0;entryDx=0;entryDy=0;strokeWidth=2;endArrow=none;endFill=0;" edge="1" parent="1" source="0jbL76hVmIkoernHE8K5-39" target="0jbL76hVmIkoernHE8K5-37">
          <mxGeometry relative="1" as="geometry" />
        </mxCell>
        <mxCell id="0jbL76hVmIkoernHE8K5-39" value="T(0, -h&lt;sub&gt;corpo&lt;/sub&gt;/2 -h&lt;sub&gt;spotlight&lt;/sub&gt;/2,&amp;nbsp;0)" style="ellipse;whiteSpace=wrap;html=1;" vertex="1" parent="1">
          <mxGeometry x="249" y="553" width="180" height="40" as="geometry" />
        </mxCell>
        <mxCell id="0jbL76hVmIkoernHE8K5-40" value="Spotlight" style="text;html=1;align=center;verticalAlign=middle;resizable=0;points=[];autosize=1;strokeColor=none;fillColor=none;" vertex="1" parent="1">
          <mxGeometry x="244" y="523" width="70" height="30" as="geometry" />
        </mxCell>
        <mxCell id="0jbL76hVmIkoernHE8K5-41" value="" style="rounded=1;whiteSpace=wrap;html=1;fillColor=none;dashed=1;" vertex="1" parent="1">
          <mxGeometry x="479" y="523" width="200" height="220" as="geometry" />
        </mxCell>
        <mxCell id="0jbL76hVmIkoernHE8K5-42" value="&lt;b&gt;Esfera&lt;/b&gt;" style="rounded=1;whiteSpace=wrap;html=1;strokeWidth=2;" vertex="1" parent="1">
          <mxGeometry x="519" y="690" width="120" height="38" as="geometry" />
        </mxCell>
        <mxCell id="0jbL76hVmIkoernHE8K5-43" style="edgeStyle=orthogonalEdgeStyle;rounded=0;orthogonalLoop=1;jettySize=auto;html=1;exitX=0.5;exitY=1;exitDx=0;exitDy=0;entryX=0.5;entryY=0;entryDx=0;entryDy=0;strokeWidth=2;endArrow=none;endFill=0;" edge="1" parent="1" source="0jbL76hVmIkoernHE8K5-44" target="0jbL76hVmIkoernHE8K5-42">
          <mxGeometry relative="1" as="geometry" />
        </mxCell>
        <mxCell id="0jbL76hVmIkoernHE8K5-44" value="S(r&lt;sub&gt;pontual&lt;/sub&gt;, r&lt;sub style=&quot;border-color: var(--border-color);&quot;&gt;pontualt&lt;/sub&gt;&lt;span style=&quot;border-color: var(--border-color);&quot;&gt;, r&lt;/span&gt;&lt;sub style=&quot;border-color: var(--border-color);&quot;&gt;pontual&lt;/sub&gt;)" style="ellipse;whiteSpace=wrap;html=1;" vertex="1" parent="1">
          <mxGeometry x="489" y="622" width="180" height="40" as="geometry" />
        </mxCell>
        <mxCell id="0jbL76hVmIkoernHE8K5-45" style="edgeStyle=orthogonalEdgeStyle;rounded=0;orthogonalLoop=1;jettySize=auto;html=1;exitX=0.5;exitY=1;exitDx=0;exitDy=0;entryX=0.5;entryY=0;entryDx=0;entryDy=0;strokeWidth=2;endArrow=none;endFill=0;" edge="1" parent="1" source="0jbL76hVmIkoernHE8K5-46" target="0jbL76hVmIkoernHE8K5-44">
          <mxGeometry relative="1" as="geometry" />
        </mxCell>
        <mxCell id="0jbL76hVmIkoernHE8K5-46" value="T(p1&lt;sub&gt;x&lt;/sub&gt;, -h&lt;sub&gt;corpo&lt;/sub&gt;/2, p1&lt;sub&gt;z&lt;/sub&gt;)" style="ellipse;whiteSpace=wrap;html=1;" vertex="1" parent="1">
          <mxGeometry x="519" y="553" width="120" height="40" as="geometry" />
        </mxCell>
        <mxCell id="0jbL76hVmIkoernHE8K5-47" value="Luz Pontual 1" style="text;html=1;align=center;verticalAlign=middle;resizable=0;points=[];autosize=1;strokeColor=none;fillColor=none;" vertex="1" parent="1">
          <mxGeometry x="579" y="523" width="100" height="30" as="geometry" />
        </mxCell>
        <mxCell id="0jbL76hVmIkoernHE8K5-51" value="T(t&lt;sub&gt;x&lt;/sub&gt;, h&lt;sub&gt;ovni&lt;/sub&gt;, t&lt;sub&gt;z&lt;/sub&gt;)" style="ellipse;whiteSpace=wrap;html=1;" vertex="1" parent="1">
          <mxGeometry x="280" y="240" width="120" height="40" as="geometry" />
        </mxCell>
        <mxCell id="0jbL76hVmIkoernHE8K5-54" value="" style="rounded=1;whiteSpace=wrap;html=1;fillColor=none;dashed=1;" vertex="1" parent="1">
          <mxGeometry x="719" y="523" width="200" height="220" as="geometry" />
        </mxCell>
        <mxCell id="0jbL76hVmIkoernHE8K5-55" value="&lt;b&gt;Esfera&lt;/b&gt;" style="rounded=1;whiteSpace=wrap;html=1;strokeWidth=2;" vertex="1" parent="1">
          <mxGeometry x="759" y="690" width="120" height="38" as="geometry" />
        </mxCell>
        <mxCell id="0jbL76hVmIkoernHE8K5-56" style="edgeStyle=orthogonalEdgeStyle;rounded=0;orthogonalLoop=1;jettySize=auto;html=1;exitX=0.5;exitY=1;exitDx=0;exitDy=0;entryX=0.5;entryY=0;entryDx=0;entryDy=0;strokeWidth=2;endArrow=none;endFill=0;" edge="1" parent="1" source="0jbL76hVmIkoernHE8K5-57" target="0jbL76hVmIkoernHE8K5-55">
          <mxGeometry relative="1" as="geometry" />
        </mxCell>
        <mxCell id="0jbL76hVmIkoernHE8K5-57" value="S(r&lt;sub&gt;pontual&lt;/sub&gt;, r&lt;sub style=&quot;border-color: var(--border-color);&quot;&gt;pontualt&lt;/sub&gt;&lt;span style=&quot;border-color: var(--border-color);&quot;&gt;, r&lt;/span&gt;&lt;sub style=&quot;border-color: var(--border-color);&quot;&gt;pontual&lt;/sub&gt;)" style="ellipse;whiteSpace=wrap;html=1;" vertex="1" parent="1">
          <mxGeometry x="729" y="622" width="180" height="40" as="geometry" />
        </mxCell>
        <mxCell id="0jbL76hVmIkoernHE8K5-58" style="edgeStyle=orthogonalEdgeStyle;rounded=0;orthogonalLoop=1;jettySize=auto;html=1;exitX=0.5;exitY=1;exitDx=0;exitDy=0;entryX=0.5;entryY=0;entryDx=0;entryDy=0;strokeWidth=2;endArrow=none;endFill=0;" edge="1" parent="1" source="0jbL76hVmIkoernHE8K5-59" target="0jbL76hVmIkoernHE8K5-57">
          <mxGeometry relative="1" as="geometry" />
        </mxCell>
        <mxCell id="0jbL76hVmIkoernHE8K5-59" value="T(p2&lt;sub&gt;x&lt;/sub&gt;, -h&lt;sub&gt;corpo&lt;/sub&gt;/2, p2&lt;sub&gt;z&lt;/sub&gt;)" style="ellipse;whiteSpace=wrap;html=1;" vertex="1" parent="1">
          <mxGeometry x="759" y="553" width="120" height="40" as="geometry" />
        </mxCell>
        <mxCell id="0jbL76hVmIkoernHE8K5-60" value="Luz Pontual 2" style="text;html=1;align=center;verticalAlign=middle;resizable=0;points=[];autosize=1;strokeColor=none;fillColor=none;" vertex="1" parent="1">
          <mxGeometry x="819" y="523" width="100" height="30" as="geometry" />
        </mxCell>
        <mxCell id="0jbL76hVmIkoernHE8K5-68" value="" style="rounded=1;whiteSpace=wrap;html=1;fillColor=none;dashed=1;" vertex="1" parent="1">
          <mxGeometry x="1039" y="523" width="200" height="220" as="geometry" />
        </mxCell>
        <mxCell id="0jbL76hVmIkoernHE8K5-69" value="&lt;b&gt;Esfera&lt;/b&gt;" style="rounded=1;whiteSpace=wrap;html=1;strokeWidth=2;" vertex="1" parent="1">
          <mxGeometry x="1079" y="690" width="120" height="38" as="geometry" />
        </mxCell>
        <mxCell id="0jbL76hVmIkoernHE8K5-70" style="edgeStyle=orthogonalEdgeStyle;rounded=0;orthogonalLoop=1;jettySize=auto;html=1;exitX=0.5;exitY=1;exitDx=0;exitDy=0;entryX=0.5;entryY=0;entryDx=0;entryDy=0;strokeWidth=2;endArrow=none;endFill=0;" edge="1" parent="1" source="0jbL76hVmIkoernHE8K5-71" target="0jbL76hVmIkoernHE8K5-69">
          <mxGeometry relative="1" as="geometry" />
        </mxCell>
        <mxCell id="0jbL76hVmIkoernHE8K5-71" value="S(r&lt;sub&gt;pontual&lt;/sub&gt;, r&lt;sub style=&quot;border-color: var(--border-color);&quot;&gt;pontualt&lt;/sub&gt;&lt;span style=&quot;border-color: var(--border-color);&quot;&gt;, r&lt;/span&gt;&lt;sub style=&quot;border-color: var(--border-color);&quot;&gt;pontual&lt;/sub&gt;)" style="ellipse;whiteSpace=wrap;html=1;" vertex="1" parent="1">
          <mxGeometry x="1049" y="622" width="180" height="40" as="geometry" />
        </mxCell>
        <mxCell id="0jbL76hVmIkoernHE8K5-72" style="edgeStyle=orthogonalEdgeStyle;rounded=0;orthogonalLoop=1;jettySize=auto;html=1;exitX=0.5;exitY=1;exitDx=0;exitDy=0;entryX=0.5;entryY=0;entryDx=0;entryDy=0;strokeWidth=2;endArrow=none;endFill=0;" edge="1" parent="1" source="0jbL76hVmIkoernHE8K5-73" target="0jbL76hVmIkoernHE8K5-71">
          <mxGeometry relative="1" as="geometry" />
        </mxCell>
        <mxCell id="0jbL76hVmIkoernHE8K5-73" value="T(p12&lt;sub&gt;x&lt;/sub&gt;, -h&lt;sub&gt;corpo&lt;/sub&gt;/2, p12&lt;sub&gt;z&lt;/sub&gt;)" style="ellipse;whiteSpace=wrap;html=1;" vertex="1" parent="1">
          <mxGeometry x="1069" y="553" width="140" height="40" as="geometry" />
        </mxCell>
        <mxCell id="0jbL76hVmIkoernHE8K5-74" value="Luz Pontual 12" style="text;html=1;align=center;verticalAlign=middle;resizable=0;points=[];autosize=1;strokeColor=none;fillColor=none;" vertex="1" parent="1">
          <mxGeometry x="1139" y="523" width="100" height="30" as="geometry" />
        </mxCell>
        <mxCell id="0jbL76hVmIkoernHE8K5-79" value="&lt;font style=&quot;font-size: 18px;&quot;&gt;...&lt;/font&gt;" style="text;html=1;strokeColor=none;fillColor=none;align=center;verticalAlign=middle;whiteSpace=wrap;rounded=0;" vertex="1" parent="1">
          <mxGeometry x="959" y="610" width="40" height="30" as="geometry" />
        </mxCell>
      </root>
    </mxGraphModel>
  </diagram>
</mxfile>
